<?xml version="1.0" encoding="UTF-8" standalone="no"?>
<svg xmlns:svg="http://www.w3.org/2000/svg" xmlns="http://www.w3.org/2000/svg" xlink="http://www.w3.org/1999/xlink" width="35.433071" height="35.433071" id="svg2" version="1.1"><g id="layer1" transform="translate(0,-1016.9291)"><path style="fill-opacity:1;stroke:none" d="m 17.71875,3.53125 c -7.8276583,0 -14.1875,6.3598417 -14.1875,14.1875 0,7.827657 6.3598417,14.15625 14.1875,14.15625 l 14.171014,0.01476 0,-2.65748 -14.171014,-0.01353 c -6.359972,0 -11.53125,-5.140028 -11.53125,-11.5 0,-6.359972 5.171278,-11.53125 11.53125,-11.53125 z" transform="translate(0,1016.9291)" id="path3873"></path><path style="fill-opacity:1;stroke:none" d="m 17.71875,7.09375 c -5.870744,0 -10.625,4.754256 -10.625,10.625 0,5.870743 4.754256,10.625 10.625,10.625 l 14.171014,0.0027 0,-2.65748 L 17.71875,25.6875 C 13.315692,25.6875 9.75,22.121807 9.75,17.71875 9.75,13.315692 13.315692,9.75 17.71875,9.75 c 1.284813,0 2.488,0.303115 3.5625,0.84375 l 1.1875,-2.375 c -1.43032,-0.7178667 -3.040698,-1.125 -4.75,-1.125 z" transform="translate(0,1016.9291)" id="path3904"></path><path style="fill-opacity:1;stroke:none" d="m 17.71875,10.625 c -3.913829,0 -7.09375,3.179921 -7.09375,7.09375 0,3.913828 3.179921,7.09375 7.09375,7.09375 l 14.171014,-0.0094 0,-2.65748 -14.171014,0.01058 c -2.446144,0 -4.4375,-1.991357 -4.4375,-4.4375 0,-2.446144 1.991356,-4.4375 4.4375,-4.4375 1.727676,0 3.20495,1.021534 3.9375,2.46875 l 2.375,-1.1875 C 22.864428,12.23883 20.490348,10.625 17.71875,10.625 z" transform="translate(0,1016.9291)" id="path3911"></path></g></svg>